<?xml version="1.0" encoding="iso-8859-1"?>
<!-- Uploaded to: SVG Repo, www.svgrepo.com, Generator: SVG Repo Mixer Tools -->
<svg height="800px" width="800px" version="1.1" id="Layer_1" xmlns="http://www.w3.org/2000/svg" xmlns:xlink="http://www.w3.org/1999/xlink" 
	 viewBox="0 0 503.467 503.467" xml:space="preserve">
<g transform="translate(1 1)">
	<path style="fill:#AAB1BA;" d="M16.067,173.933l47.787,76.8l-47.787,76.8l0,0c-7.68-23.893-11.947-50.347-11.947-76.8
		C3.267,224.28,7.533,197.827,16.067,173.933L16.067,173.933z M63.853,88.6c34.987-40.107,81.92-68.267,135.68-80.213l0,0
		l-42.667,79.36L63.853,88.6L63.853,88.6z M306.2,156.867l55.467,93.867L306.2,344.6H195.267L139.8,250.733l55.467-93.867l0,0H306.2
		z M344.6,412.867h93.013c-34.987,40.107-82.773,69.12-137.387,80.213l0,0L344.6,412.867z M198.68,493.08
		c-53.76-11.093-100.693-40.107-134.827-79.36l0,0h93.013l0,0L198.68,493.08L198.68,493.08z M301.933,8.387
		c53.76,11.093,100.693,39.253,134.827,79.36l-0.853,0.853H344.6L301.933,8.387L301.933,8.387z M498.2,250.733
		c0,26.453-4.267,52.907-11.947,76.8l0,0l-46.933-76.8l46.933-76.8h0.853C493.933,197.827,498.2,224.28,498.2,250.733z"/>
	<path style="fill:#ECF4F7;" d="M195.267,344.6L195.267,344.6l-38.4,68.267l41.813,79.36l0,0c17.067,3.413,34.133,5.12,52.053,5.12
		c17.067,0,33.28-1.707,49.493-5.12l0,0l44.373-80.213l-38.4-68.267l0,0H195.267V344.6L195.267,344.6L139.8,250.733H63l-47.787,76.8
		l0,0c10.24,31.573,26.453,60.587,48.64,85.333l0,0h93.013l0,0L195.267,344.6L195.267,344.6z M344.6,88.6L301.933,9.24l0,0
		c-16.213-3.413-33.28-5.12-51.2-5.12s-34.987,1.707-51.2,5.12l0,0L156.867,88.6l38.4,68.267l0,0h110.08l55.467,93.867h76.8
		l46.933-76.8h0.853c-10.24-31.573-27.307-61.44-48.64-86.187l-0.853,0.853H344.6L344.6,88.6z M485.4,327.533L485.4,327.533
		c-6.827,21.333-16.213,40.96-28.16,59.733c0,0-11.947,17.067-19.627,25.6H344.6L306.2,344.6l0,0l55.467-93.867h76.8L485.4,327.533z
		 M156.867,88.6l38.4,68.267L139.8,250.733H63l-46.933-76.8l0,0c10.24-31.573,27.307-60.587,48.64-85.333l0,0H156.867z"/>
</g>
<path style="fill:#51565F;" d="M251.733,503.467C112.64,503.467,0,390.827,0,251.733S112.64,0,251.733,0
	s251.733,112.64,251.733,251.733c0,49.493-14.507,97.28-41.813,139.093c-1.707,1.707-4.267,2.56-5.973,0.853
	c-1.707-1.707-2.56-4.267-0.853-5.973c11.947-17.92,20.48-36.693,27.307-56.32L436.907,256h-71.68l-52.907,89.6l35.84,64h90.453
	c0,0,0,0,0.853,0l0,0l0,0l0,0l0,0h0.853l0,0l0,0l0,0l0,0c0,0,0.853,0,0.853,0.853c0,0,0,0,0.853,0l0,0l0,0
	c0.853,0,0.853,0.853,0.853,1.707s0,0.853,0,1.707l0,0l0,0v0.853l0,0l0,0v0.853c0,0,0,0.853-0.853,0.853l0,0
	C394.24,471.893,325.12,503.467,251.733,503.467z M202.24,489.813c30.72,5.973,64,6.827,95.573,0.853l42.667-76.8l-35.84-64H198.827
	l-35.84,64L202.24,489.813z M348.16,418.133l-38.4,69.973c45.227-11.093,87.04-34.987,119.467-69.973H348.16z M74.24,418.133
	c31.573,33.28,71.68,58.027,116.907,69.12l-36.693-69.12H74.24z M66.56,409.6h88.747l35.84-64L138.24,256H66.56l-45.227,73.387
	C31.573,359.253,46.933,386.56,66.56,409.6z M198.827,341.333H304.64l52.907-89.6l-52.907-89.6H198.827l-52.907,89.6
	L198.827,341.333z M444.587,251.733l40.96,67.413c5.973-21.333,9.387-44.373,9.387-67.413c0-23.04-3.413-46.08-9.387-67.413
	L444.587,251.733z M17.92,185.173c-5.973,21.333-9.387,43.52-9.387,66.56c0,23.04,3.413,45.227,9.387,66.56l40.96-66.56
	L17.92,185.173z M365.227,247.467h71.68l45.227-73.387c-10.24-29.867-25.6-56.32-45.227-80.213H348.16l-35.84,64L365.227,247.467z
	 M66.56,247.467h71.68l52.907-89.6l-35.84-64H66.56c-19.627,23.04-35.84,50.347-46.08,80.213L66.56,247.467z M198.827,153.6H304.64
	l35.84-64l-40.96-75.947c-30.72-5.973-64.853-5.973-96.427,0L162.133,89.6L198.827,153.6z M348.16,85.333h81.067
	c-31.573-33.28-72.533-58.027-117.76-69.12L348.16,85.333z M74.24,85.333h81.067l37.547-69.12
	C146.773,27.307,105.813,52.053,74.24,85.333z"/>
</svg>